<?xml version="1.0" encoding="utf-8"?>
<!-- Generator: Adobe Illustrator 23.1.0, SVG Export Plug-In . SVG Version: 6.00 Build 0)  -->
<svg version="1.1" id="svg4136" xmlns="http://www.w3.org/2000/svg" xmlns:xlink="http://www.w3.org/1999/xlink" height = "143.136" width = "245.304"
	 viewBox="0 0 245.3 143.1" style="enable-background:new 0 0 245.3 143.1;" xml:space="preserve">
<style type="text/css">
	.st0{fill:#AA0000;}
	.st1{fill-opacity:0;stroke:#FFFFFF;stroke-width:0.72;stroke-linecap:round;stroke-linejoin:round;stroke-miterlimit:11.3386;}
	.st2{fill-opacity:0;stroke:#FFFFFF;stroke-width:0.8179;stroke-linecap:round;stroke-linejoin:round;stroke-miterlimit:11.3386;}
	.st3{fill-rule:evenodd;clip-rule:evenodd;fill:#D40000;stroke:#680000;stroke-width:1.44;stroke-miterlimit:11.3386;}
	.st4{fill:none;stroke:#680000;stroke-width:1.44;stroke-miterlimit:11.3386;}
	.st5{fill:#FFFFFF;}
	.st6{fill:#FFFFFF;stroke:#9A916C;stroke-width:1.44;stroke-miterlimit:11.3386;}
	.st7{fill-opacity:0;stroke:#FFFFFF;stroke-width:0.72;stroke-miterlimit:11.3386;}
	.st8{font-family:'DroidSans';}
	.st9{font-size:6px;}
	.st10{fill:#C8C8C8;}
	.st11{stroke:#C8C8C8;stroke-width:2.1846;stroke-linecap:round;stroke-linejoin:round;stroke-miterlimit:11.3386;}
	.st12{fill:#E6BE00;}
	.st13{fill:#333333;}
</style>
<desc>
	<referenceFile>2.8lcd_05ce3fb27514cf8fb52325ad444b9354_9_breadboard.svg</referenceFile>
</desc>
<g id="breadboard">
	<rect id="rect8384" y="0" class="st0" width="245.3" height="143.1"/>
	<rect id="rect4185" x="232.9" y="66.5" class="st1" width="7.2" height="21.6"/>
	<rect id="rect4183" x="232.9" y="59.3" class="st1" width="7.2" height="7.2"/>
	<rect id="rect4189" x="1.7" y="28.3" class="st2" width="7.1" height="94.3"/>
	<rect id="rect4187" x="1.7" y="21.1" class="st1" width="7.2" height="7.2"/>
	<path id="path6518" class="st3" d="M9.2,81.2h21.9"/>
	<path id="path6516" class="st3" d="M9.2,83.4h21.9"/>
	<path id="path6514" class="st3" d="M9.2,76.2h21.9"/>
	<path id="path6512" class="st3" d="M9.2,74h21.9"/>
	<path id="path6510" class="st3" d="M9.2,66.8h21.9"/>
	<path id="path6508" class="st3" d="M9.2,69h21.9"/>
	<path id="path6506" class="st3" d="M9.2,61.8h21.9"/>
	<path id="path6504" class="st3" d="M9.2,59.6h21.9"/>
	<path id="path6502" class="st3" d="M9.2,52.4h21.9"/>
	<path id="path6500" class="st3" d="M9.2,54.6h21.9"/>
	<path id="path6498" class="st3" d="M9.2,47.4h21.9"/>
	<path id="path6496" class="st3" d="M9.2,45.2h21.9"/>
	<path id="path5694" class="st3" d="M9.2,38h21.9"/>
	<path id="path5700" class="st3" d="M9.2,40.2h21.9"/>
	<path id="path5702" class="st4" d="M228,76.2h4.6"/>
	<path id="path5704" class="st4" d="M228,78.3h4.6"/>
	<g transform="matrix(1,0,0,-0.99999999,-0.68699999,-0.69180128)">
		<g>
			<g>
				<g>
					<circle id="circle4189" class="st5" cx="21.9" cy="-134.6" r="4.3"/>
				</g>
			</g>
		</g>
	</g>
	<g transform="matrix(1,0,0,-0.99999999,-0.68699999,-0.69180128)">
		<g>
			<g>
				<g>
					<circle id="circle4185" class="st5" cx="237.3" cy="-9.9" r="4.3"/>
				</g>
			</g>
		</g>
	</g>
	<g transform="matrix(1,0,0,-0.99999999,-0.68699999,-0.69180128)">
		<g>
			<g>
				<g>
					<circle id="circle4173" class="st5" cx="21.9" cy="-9.9" r="4.3"/>
				</g>
			</g>
		</g>
	</g>
	<g transform="matrix(1,0,0,-0.99999999,-0.68699999,-0.69180128)">
		<g>
			<g>
				<g>
					<circle id="circle4187" class="st5" cx="237.3" cy="-134.6" r="4.3"/>
				</g>
			</g>
		</g>
	</g>
	<g transform="matrix(1,0,0,-0.99999999,-0.68699999,-0.69180128)">
		<g>
			<g>
				<g>
					<circle id="connector0pin" class="st6" cx="6" cy="-25.5" r="2.3"/>
				</g>
			</g>
		</g>
	</g>
	<g transform="matrix(1,0,0,-0.99999999,-0.68699999,-0.69180128)">
		<g>
			<g>
				<g>
					<circle id="connector18pin" class="st6" cx="237.1" cy="-63.6" r="2.3"/>
				</g>
			</g>
		</g>
	</g>
	<g transform="matrix(1,0,0,-0.99999999,-0.68699999,-0.69180128)">
		<g>
			<g>
				<g>
					<circle id="connector16pin" class="st6" cx="237.1" cy="-78" r="2.3"/>
				</g>
			</g>
		</g>
	</g>
	<g transform="matrix(1,0,0,-0.99999999,-0.68699999,-0.69180128)">
		<g>
			<g>
				<g>
					<circle id="connector15pin" class="st6" cx="237.1" cy="-85.2" r="2.3"/>
				</g>
			</g>
		</g>
	</g>
	<g transform="matrix(1,0,0,-0.99999999,-0.68699999,-0.69180128)">
		<g>
			<g>
				<g>
					<circle id="connector17pin" class="st6" cx="237.1" cy="-70.8" r="2.3"/>
				</g>
			</g>
		</g>
	</g>
	<g transform="matrix(1,0,0,-0.99999999,-0.68699999,-0.69180128)">
		<g>
			<g>
				<g>
					<circle id="connector4pin" class="st6" cx="6" cy="-54.3" r="2.3"/>
				</g>
			</g>
		</g>
	</g>
	<g transform="scale(1,-1)">
		<g>
			<g>
				<g>
					<circle id="connector1pin" class="st6" cx="5.3" cy="-32" r="2.3"/>
				</g>
			</g>
		</g>
	</g>
	<g transform="scale(1,-1)">
		<g>
			<g>
				<g>
					<circle id="connector2pin" class="st6" cx="5.3" cy="-39.2" r="2.3"/>
				</g>
			</g>
		</g>
	</g>
	<g transform="scale(1,-1)">
		<g>
			<g>
				<g>
					<circle id="connector3pin" class="st6" cx="5.3" cy="-46.4" r="2.3"/>
				</g>
			</g>
		</g>
	</g>
	<g transform="scale(1,-1)">
		<g>
			<g>
				<g>
					<circle id="connector6pin" class="st6" cx="5.3" cy="-68" r="2.3"/>
				</g>
			</g>
		</g>
	</g>
	<g transform="scale(1,-1)">
		<g>
			<g>
				<g>
					<circle id="connector5pin" class="st6" cx="5.3" cy="-60.8" r="2.3"/>
				</g>
			</g>
		</g>
	</g>
	<g transform="scale(1,-1)">
		<g>
			<g>
				<g>
					<circle id="connector7pin" class="st6" cx="5.3" cy="-75.2" r="2.3"/>
				</g>
			</g>
		</g>
	</g>
	<g transform="scale(1,-1)">
		<g>
			<g>
				<g>
					<circle id="connector14pin" class="st6" cx="5.3" cy="-118.4" r="2.3"/>
				</g>
			</g>
		</g>
	</g>
	<g transform="scale(1,-1)">
		<g>
			<g>
				<g>
					<circle id="connector13pin" class="st6" cx="5.3" cy="-111.2" r="2.3"/>
				</g>
			</g>
		</g>
	</g>
	<g transform="scale(1,-1)">
		<g>
			<g>
				<g>
					<circle id="connector12pin" class="st6" cx="5.3" cy="-104" r="2.3"/>
				</g>
			</g>
		</g>
	</g>
	<g transform="scale(1,-1)">
		<g>
			<g>
				<g>
					<circle id="connector10pin" class="st6" cx="5.3" cy="-89.6" r="2.3"/>
				</g>
			</g>
		</g>
	</g>
	<g transform="scale(1,-1)">
		<g>
			<g>
				<g>
					<circle id="connector11pin" class="st6" cx="5.3" cy="-96.8" r="2.3"/>
				</g>
			</g>
		</g>
	</g>
	<g transform="scale(1,-1)">
		<g>
			<g>
				<g>
					<circle id="connector9pin" class="st6" cx="5.3" cy="-82.4" r="2.3"/>
				</g>
			</g>
		</g>
	</g>
	<rect id="rect9003" x="29.6" y="0" width="198.4" height="143.1"/>
	<g transform="matrix(1,0,0,-0.99999999,-0.68699999,-0.69180128)">
		<g>
			<g>
				<g>
					<circle id="circle4166" class="st7" cx="21.9" cy="-134.6" r="5.7"/>
				</g>
			</g>
		</g>
	</g>
	<g transform="matrix(1,0,0,-0.99999999,-0.68699999,-0.69180128)">
		<g>
			<g>
				<g>
					<circle id="circle4168" class="st7" cx="21.9" cy="-9.9" r="5.7"/>
				</g>
			</g>
		</g>
	</g>
	<g transform="matrix(1,0,0,-0.99999999,-0.68699999,-0.69180128)">
		<g>
			<g>
				<g>
					<circle id="circle4179" class="st7" cx="237.3" cy="-9.9" r="5.7"/>
				</g>
			</g>
		</g>
	</g>
	<g transform="matrix(1,0,0,-0.99999999,-0.68699999,-0.69180128)">
		<g>
			<g>
				<g>
					<circle id="circle4181" class="st7" cx="237.3" cy="-134.6" r="5.7"/>
				</g>
			</g>
		</g>
	</g>
	<g transform="matrix(0,1,-1,0,0,0)">
		<g>
			<g>
				<g>
					<g id="text4862" xmlns:xml="http://www.w3.org/XML/1998/namespace">
						<text id="tspan4866" transform="matrix(1 0 0 1 91.5773 -234.9824)" class="st5 st8 st9">J4</text>
					</g>
				</g>
			</g>
		</g>
	</g>
	<g transform="matrix(0,1,-0.99999999,0,0,0)">
		<g>
			<g>
				<g>
					<g id="text4751" xmlns:xml="http://www.w3.org/XML/1998/namespace">
						<text id="tspan4753" transform="matrix(1 0 0 1 13.2228 -3.8145)" class="st5 st8 st9">J2</text>
					</g>
				</g>
			</g>
		</g>
	</g>
	<g transform="matrix(0,1,-0.99999999,0,0,0)">
		<g>
			<g>
				<g>
					<g id="text4751_1_" xmlns:xml="http://www.w3.org/XML/1998/namespace">
						<text id="tspan4753_1_" transform="matrix(6.184660e-03 -1 1 6.184660e-03 26.6049 -11.6659)" class="st5 st8 st9">VCC</text>
					</g>
				</g>
			</g>
		</g>
	</g>
	<rect id="rect4874" x="30.9" y="8.9" class="st10" width="4.9" height="35.5"/>
	<rect id="rect4878" x="33.7" y="0" class="st10" width="2.1" height="9.1"/>
	<rect id="rect4880" x="35.2" y="0" class="st10" width="192.8" height="1.3"/>
	<rect id="rect4882" x="35" y="34.7" class="st10" width="4" height="5.6"/>
	<rect id="rect4884" x="35" y="25.7" class="st10" width="4" height="5.6"/>
	<rect id="rect4886" x="35" y="16.7" class="st10" width="4" height="5.6"/>
	<rect id="rect4888" x="39.2" y="2.3" class="st11" width="187.6" height="140.2"/>
	<rect id="rect4890" x="28" y="15.6" class="st12" width="3.3" height="22.6"/>
	<rect id="rect6520" x="51.4" y="6" class="st13" width="171.5" height="133"/>
</g>
<g transform="matrix(0,1,-0.99999999,0,0,0)">
	<g>
		<g>
			<g>
				<g id="text4751_2_" xmlns:xml="http://www.w3.org/XML/1998/namespace">
					<text id="tspan4753_2_" transform="matrix(6.184660e-03 -1 1 6.184660e-03 34.2211 -11.6662)" class="st5 st8 st9">GND</text>
				</g>
			</g>
		</g>
	</g>
</g>
<g transform="matrix(0,1,-0.99999999,0,0,0)">
	<g>
		<g>
			<g>
				<g id="text4751_3_" xmlns:xml="http://www.w3.org/XML/1998/namespace">
					<text id="tspan4753_3_" transform="matrix(6.184660e-03 -1 1 6.184660e-03 41.4291 -11.6665)" class="st5 st8 st9">CS</text>
				</g>
			</g>
		</g>
	</g>
</g>
<g transform="matrix(0,1,-0.99999999,0,0,0)">
	<g>
		<g>
			<g>
				<g id="text4751_4_" xmlns:xml="http://www.w3.org/XML/1998/namespace">
					<text id="tspan4753_4_" transform="matrix(6.184660e-03 -1 1 6.184660e-03 48.6293 -11.6665)" class="st5 st8 st9">RESET</text>
				</g>
			</g>
		</g>
	</g>
</g>
<g transform="matrix(0,1,-0.99999999,0,0,0)">
	<g>
		<g>
			<g>
				<g id="text4751_5_" xmlns:xml="http://www.w3.org/XML/1998/namespace">
					<text id="tspan4753_5_" transform="matrix(6.184660e-03 -1 1 6.184660e-03 55.8295 -11.666)" class="st5 st8 st9">DC</text>
				</g>
			</g>
		</g>
	</g>
</g>
<g transform="matrix(0,1,-0.99999999,0,0,0)">
	<g>
		<g>
			<g>
				<g id="text4751_6_" xmlns:xml="http://www.w3.org/XML/1998/namespace">
					<text id="tspan4753_6_" transform="matrix(6.184660e-03 -1 1 6.184660e-03 63.0287 -11.666)" class="st5 st8 st9">SDI</text>
				</g>
			</g>
		</g>
	</g>
</g>
<g transform="matrix(0,1,-0.99999999,0,0,0)">
	<g>
		<g>
			<g>
				<g id="text4751_7_" xmlns:xml="http://www.w3.org/XML/1998/namespace">
					<text id="tspan4753_7_" transform="matrix(6.184660e-03 -1 1 6.184660e-03 70.2289 -11.666)" class="st5 st8 st9">SCK</text>
				</g>
			</g>
		</g>
	</g>
</g>
<g transform="matrix(0,1,-0.99999999,0,0,0)">
	<g>
		<g>
			<g>
				<g id="text4751_8_" xmlns:xml="http://www.w3.org/XML/1998/namespace">
					<text id="tspan4753_8_" transform="matrix(6.184660e-03 -1 1 6.184660e-03 77.4291 -11.666)" class="st5 st8 st9">LED</text>
				</g>
			</g>
		</g>
	</g>
</g>
<g transform="matrix(0,1,-0.99999999,0,0,0)">
	<g>
		<g>
			<g>
				<g id="text4751_9_" xmlns:xml="http://www.w3.org/XML/1998/namespace">
					<text id="tspan4753_9_" transform="matrix(6.184660e-03 -1 1 6.184660e-03 84.6293 -11.6666)" class="st5 st8 st9">SDO</text>
				</g>
			</g>
		</g>
	</g>
</g>
<g transform="matrix(0,1,-0.99999999,0,0,0)">
	<g>
		<g>
			<g>
				<g id="text4751_10_" xmlns:xml="http://www.w3.org/XML/1998/namespace">
					<text id="tspan4753_10_" transform="matrix(6.184660e-03 -1 1 6.184660e-03 91.8295 -11.6667)" class="st5 st8 st9">T_CLK</text>
				</g>
			</g>
		</g>
	</g>
</g>
<g transform="matrix(0,1,-0.99999999,0,0,0)">
	<g>
		<g>
			<g>
				<g id="text4751_11_" xmlns:xml="http://www.w3.org/XML/1998/namespace">
					<text id="tspan4753_11_" transform="matrix(6.184660e-03 -1 1 6.184660e-03 99.0287 -11.6659)" class="st5 st8 st9">T_CS</text>
				</g>
			</g>
		</g>
	</g>
</g>
<g transform="matrix(0,1,-0.99999999,0,0,0)">
	<g>
		<g>
			<g>
				<g id="text4751_12_" xmlns:xml="http://www.w3.org/XML/1998/namespace">
					<text id="tspan4753_12_" transform="matrix(6.184660e-03 -1 1 6.184660e-03 106.2289 -11.6669)" class="st5 st8 st9">T_DIN</text>
				</g>
			</g>
		</g>
	</g>
</g>
<g transform="matrix(0,1,-0.99999999,0,0,0)">
	<g>
		<g>
			<g>
				<g id="text4751_13_" xmlns:xml="http://www.w3.org/XML/1998/namespace">
					<text id="tspan4753_13_" transform="matrix(6.184660e-03 -1 1 6.184660e-03 113.4291 -11.6662)" class="st5 st8 st9">T_DO</text>
				</g>
			</g>
		</g>
	</g>
</g>
<g transform="matrix(0,1,-0.99999999,0,0,0)">
	<g>
		<g>
			<g>
				<g id="text4751_14_" xmlns:xml="http://www.w3.org/XML/1998/namespace">
					<text id="tspan4753_14_" transform="matrix(6.184660e-03 -1 1 6.184660e-03 120.6293 -11.6659)" class="st5 st8 st9">T_IRQ</text>
				</g>
			</g>
		</g>
	</g>
</g>
</svg>
