<?xml version="1.0" encoding="utf-8"?>
<!-- Generator: Adobe Illustrator 23.1.0, SVG Export Plug-In . SVG Version: 6.00 Build 0)  -->
<svg version="1.1" id="Layer_1" xmlns:xml="http://www.w3.org/XML/1998/namespace"
	 xmlns="http://www.w3.org/2000/svg" xmlns:xlink="http://www.w3.org/1999/xlink" x="0px" y="0px" viewBox="0 0 114.6 38.8"
	 style="enable-background:new 0 0 114.6 38.8;" xml:space="preserve">
<style type="text/css">
	.st0{fill:none;stroke:#000000;stroke-width:4.562;stroke-miterlimit:10.3453;}
	.st1{fill:#800000;stroke:#CE0000;stroke-width:4.562;stroke-miterlimit:10.3453;}
	.st2{fill:#B3B3B3;stroke:#1D1D1B;stroke-width:0.2281;stroke-miterlimit:9.124;}
	.st3{fill:#262626;}
	.st4{fill:#FFFFFF;fill-opacity:0.1;}
	.st5{fill:none;}
</style>
<desc>
	<referenceFile>DC Power Jack - Male.svg</referenceFile>
</desc>
<path id="path1513_2_" class="st0" d="M5.3,24.4h16.9"/>
<path id="path1513-6_2_" class="st1" d="M5.3,14.9h16.9"/>
<path id="connector1pin" class="st1" d="M6.1,14.9h1.2"/>
<path id="connector0pin" class="st0" d="M6.3,24.4h1"/>
<g>
	<g transform="translate(0,8.67779)">
		<g>
			<g>
				<g>
					<g id="breadboard_1_">
						<g id="connector0leg_1_">
						</g>
						<g id="connector1leg_1_">
						</g>
						<rect id="connector0pin_2_" x="39.1" y="20" width="1.4" height="1.4"/>
						<rect id="connector1pin_2_" x="39.1" y="10.1" width="1.4" height="1.4"/>
						<rect id="rect17_1_" x="83.3" y="2.8" class="st2" width="22.2" height="16.3"/>
						<ellipse id="ellipse13_1_" class="st3" cx="44.8" cy="13.2" rx="2.7" ry="9.5"/>
						<g transform="matrix(1.52623, 0, 0, 1.22984, 130.615, 80.7615)">
							<g>
								<g>
									<g>
										<g>
											<polygon id="polygon33_1_" class="st3" points="-28.1,-42.6 -28.1,-71.3 -55.5,-71.3 -62.3,-67.7 -72,-67.7 -72,-46.2 
												-62.3,-46.2 -55.5,-42.6 											"/>
										</g>
									</g>
								</g>
							</g>
						</g>
						<g transform="matrix(1.52623, 0, 0, 1.22984, 130.615, 80.7615)">
							<g>
								<g>
									<g>
										<g>
											<polygon id="polygon35_1_" class="st4" points="-61.3,-57.5 -54.5,-52.1 -28.1,-52.1 -28.1,-48.7 -55.1,-48.7 -61.8,-54 
												-69,-54 -69,-57.5 											"/>
										</g>
									</g>
								</g>
							</g>
						</g>
						<ellipse id="ellipse179_3_" class="st2" cx="105.9" cy="11" rx="3.9" ry="8.1"/>
						<rect id="connector2pin_1_" x="82.8" y="19.6" class="st5" width="9.6" height="2"/>
						<g id="connector2terminal_1_">
						</g>
						<rect id="connector3pin_1_" x="82.8" y="-0.1" class="st5" width="9.6" height="2"/>
						<g id="connector3terminal_1_">
						</g>
					</g>
				</g>
			</g>
		</g>
	</g>
</g>
<ellipse id="ellipse179_2_" class="st3" cx="106.5" cy="19.9" rx="2.4" ry="6"/>
</svg>
