<?xml version="1.0" encoding="utf-8"?>
<!-- Generator: Adobe Illustrator 23.1.0, SVG Export Plug-In . SVG Version: 6.00 Build 0)  -->
<svg version="1.1" xmlns="http://www.w3.org/2000/svg" xmlns:xlink="http://www.w3.org/1999/xlink" height = "161.872" width = "107.972"
	 viewBox="0 0 112.3 166.9" style="enable-background:new 0 0 112.3 166.9;" xml:space="preserve">
<style type="text/css">
	.st0{stroke:url(#path100_2_);stroke-width:4;stroke-linecap:round;stroke-miterlimit:10;}
	.st1{fill:none;}
	.st2{stroke:url(#path110_1_);stroke-width:4;stroke-linecap:round;stroke-miterlimit:10;}
	.st3{stroke:url(#path108_2_);stroke-width:4;stroke-linecap:round;stroke-miterlimit:10;}
	.st4{stroke:#A5A2A3;stroke-width:4;stroke-linecap:round;stroke-miterlimit:10;}
	.st5{stroke:#4C3C31;stroke-width:4;stroke-linecap:round;stroke-miterlimit:10;}
	.st6{stroke:#ECF70B;stroke-width:4;stroke-linecap:round;stroke-miterlimit:10;}
	.st7{stroke:#F458F0;stroke-width:4;stroke-linecap:round;stroke-miterlimit:10;}
	.st8{stroke:#DDD3D9;stroke-width:4;stroke-linecap:round;stroke-miterlimit:10;}
	.st9{stroke:#000000;stroke-width:4;stroke-linecap:round;stroke-miterlimit:10;}
	.st10{stroke:#FF6600;stroke-width:4;stroke-linecap:round;stroke-miterlimit:10;}
	.st11{stroke:url(#path7466_1_);stroke-width:4;stroke-linecap:round;stroke-miterlimit:10;}
	.st12{stroke:#0000FF;stroke-width:4;stroke-linecap:round;stroke-miterlimit:10;}
	.st13{stroke:#00FF00;stroke-width:4;stroke-linecap:round;stroke-miterlimit:10;}
	.st14{stroke:#9A0FBC;stroke-width:4;stroke-linecap:round;stroke-miterlimit:10;}
	.st15{fill:#B3B3B3;}
	.st16{fill:#808080;}
	.st17{fill:#999999;}
	.st18{fill:#4D4D4D;}
	.st19{opacity:0.2;fill:#FFFFFF;enable-background:new    ;}
	.st20{opacity:0.2;enable-background:new    ;}
	.st21{stroke:url(#path100_3_);stroke-width:4;stroke-linecap:round;stroke-miterlimit:10;}
	.st22{stroke:url(#path98_1_);stroke-width:4;stroke-linecap:round;stroke-miterlimit:10;}
	.st23{stroke:url(#path96_1_);stroke-width:4;stroke-linecap:round;stroke-miterlimit:10;}
	.st24{stroke:url(#path7_2_);stroke-width:4;stroke-linecap:round;stroke-miterlimit:10;}
	.st25{fill:#FFFFFF;stroke:#9A916C;stroke-width:0.5;stroke-miterlimit:11.3388;}
</style>
<g id="Slip_Ring" xmlns:cc="http://creativecommons.org/ns#" xmlns:dc="http://purl.org/dc/elements/1.1/" xmlns:rdf="http://www.w3.org/1999/02/22-rdf-syntax-ns#" xmlns:svg="http://www.w3.org/2000/svg">
	<g id="Input_Wires">
		<g>
			
				<linearGradient id="path100_2_" gradientUnits="userSpaceOnUse" x1="34.0443" y1="131.9145" x2="63.7561" y2="131.9145" gradientTransform="matrix(0.94 -0.7773 0.7252 0.877 -49.2788 45.7302)">
				<stop  offset="9.767359e-02" style="stop-color:#247BFF"/>
				<stop  offset="0.3998" style="stop-color:#FCFCFC"/>
				<stop  offset="0.6528" style="stop-color:#1572FF"/>
			</linearGradient>
			<path id="path100_1_" class="st0" d="M80,83.9l24.7,79.1"/>
			<ellipse id="path7429_12_" class="st1" cx="104.7" cy="163.2" rx="1.2" ry="1.1"/>
		</g>
		<g>
			
				<linearGradient id="path110_1_" gradientUnits="userSpaceOnUse" x1="71.6513" y1="106.8292" x2="106.8179" y2="106.8292" gradientTransform="matrix(0.9997 -2.610176e-02 2.610176e-02 0.9997 -1.713 1.42)">
				<stop  offset="0.1734" style="stop-color:#00E922"/>
				<stop  offset="0.5829" style="stop-color:#E3FF6E"/>
				<stop  offset="0.9854" style="stop-color:#3BEF36"/>
			</linearGradient>
			<path id="path110" class="st2" d="M107,148.1L73.6,63.6"/>
			<ellipse id="path7429_11_" class="st1" cx="107" cy="148.4" rx="1" ry="1"/>
		</g>
		<g>
			
				<linearGradient id="path108_2_" gradientUnits="userSpaceOnUse" x1="66.933" y1="101.3193" x2="106.04" y2="101.3193" gradientTransform="matrix(0.9988 -4.888435e-02 4.888435e-02 0.9988 -3.0272 2.6448)">
				<stop  offset="6.030163e-02" style="stop-color:#261D1B"/>
				<stop  offset="0.5231" style="stop-color:#F41111"/>
				<stop  offset="0.996" style="stop-color:#000000"/>
			</linearGradient>
			<path id="path108" class="st3" d="M107.5,133.2L69.1,66.1"/>
			<ellipse id="path7429_10_" class="st1" cx="107.7" cy="133.5" rx="1" ry="1"/>
		</g>
		<g>
			<path id="path7464" class="st4" d="M105.9,119.6L67,66.8"/>
			<ellipse id="path7429_9_" class="st1" cx="106" cy="119.9" rx="1" ry="1"/>
		</g>
		<g>
			<path id="path7462" class="st5" d="M105.9,105.1L65,73.9"/>
			<ellipse id="path7429_8_" class="st1" cx="106" cy="105.3" rx="1.2" ry="1.1"/>
		</g>
		<g>
			<path id="path7460" class="st6" d="M105.9,90.6l-45.2-9.2"/>
			<ellipse id="path7429_28_" class="st1" cx="106" cy="90.8" rx="1.2" ry="1.1"/>
		</g>
		<g>
			<path id="path7470" class="st7" d="M106,76.2L52.8,99.3"/>
			<ellipse id="path7429_29_" class="st1" cx="106.2" cy="76" rx="1.2" ry="1.1"/>
		</g>
		<g>
			<path id="path7464_1_" class="st8" d="M105.4,70.6l-54.5,37.2"/>
			<ellipse id="path7429_30_" class="st1" cx="105.6" cy="70.4" rx="1.2" ry="1.1"/>
		</g>
		<g>
			<path id="path7468" class="st9" d="M105.4,63.4l-45.7,37.9"/>
			<ellipse id="path7429_31_" class="st1" cx="105.6" cy="63.2" rx="1.2" ry="1.1"/>
		</g>
		<g>
			<path id="path108_1_" class="st10" d="M106.9,55.4L61.2,94"/>
			<ellipse id="path7429_32_" class="st1" cx="107.2" cy="55.3" rx="1.2" ry="1.1"/>
		</g>
		<g>
			<linearGradient id="path7466_1_" gradientUnits="userSpaceOnUse" x1="54.1816" y1="77.6493" x2="107.8617" y2="77.6493">
				<stop  offset="0.1693" style="stop-color:#F41111"/>
				<stop  offset="0.6271" style="stop-color:#FFFFFF"/>
				<stop  offset="0.8889" style="stop-color:#F41111"/>
			</linearGradient>
			<path id="path7466" class="st11" d="M105.9,47.2l-49.7,60.9"/>
			<ellipse id="path7429_33_" class="st1" cx="106" cy="47.1" rx="1.2" ry="1.1"/>
		</g>
		<g>
			<path id="path102" class="st12" d="M107.4,33.5l-40.9,73.6"/>
			<path class="st1" d="M107.5,32.1c0.6,0,1.2,0.5,1.2,1.1c0,0.6-0.5,1.1-1.2,1.1s-1.2-0.5-1.2-1.1
				C106.4,32.6,106.9,32.1,107.5,32.1z"/>
		</g>
		<g>
			<path id="path104" class="st13" d="M107.5,19.6l-36.3,87.1"/>
			<ellipse id="path7429_3_" class="st1" cx="107.5" cy="19.7" rx="1" ry="1"/>
		</g>
		<g>
			<path id="path106" class="st14" d="M105.9,3.7l-30.4,98.5"/>
			<line id="connector12leg" class="st14" x1="105.9" y1="3.7" x2="105.7" y2="3.7"/>
		</g>
	</g>
	<g id="Slip_Ring_Body">
		<rect id="rect7427" x="36.4" y="54.4" class="st15" width="43.2" height="58.7"/>
		<ellipse id="circle16" class="st16" cx="31.4" cy="81.5" rx="8.1" ry="67"/>
		<polygon id="rect18" class="st17" points="26.4,145.6 27.7,11.9 32,14.7 30.8,148.4 		"/>
		<ellipse id="circle20" cx="27" cy="78.8" rx="8.1" ry="67"/>
		<path id="path14644" d="M21.6,79.1c0.2-16,2.9-28,6-27.2c-0.1,0-0.1-0.1-0.2-0.1c-3.2-1.2-5.9,11-6.2,27.2
			c-0.2,16.3,2.1,30.4,5.3,31.6c0.1,0,0.1,0,0.2,0C23.7,109,21.4,95.1,21.6,79.1z"/>
		<path id="path14646" class="st18" d="M19,73.7c-0.3,36.9,3,69.1,7.4,71.9c4.4,2.8,8.3-24.9,8.7-61.8s-3-69.1-7.4-71.9
			C23.2,9.1,19.3,36.8,19,73.7z M32.8,82.4c-0.2,26.4-3,46.1-6.2,44.1c-3.2-2-5.6-24.9-5.3-51.3c0.2-26.4,3-46.1,6.2-44.1
			S33,56,32.8,82.4z"/>
		<ellipse id="path7429" class="st15" cx="79.3" cy="83.6" rx="7.1" ry="29.2"/>
		<path id="path14654" class="st19" d="M27.6,30.4c3.2,2,5.6,25.3,5.3,52.1c-0.2,26.8-3,46.8-6.2,44.8l-0.1-0.1
			c3.2,2,5.9-18,6.2-44.8C33,55.7,30.7,32.3,27.6,30.4L27.6,30.4z"/>
		<path id="path14650" class="st19" d="M26.6,145.7c-4.4-2.8-7.8-35-7.4-71.9c0.3-36.9,4.2-64.6,8.7-61.8l-0.1-0.1
			c-4.4-2.8-8.3,24.9-8.7,61.8c-0.3,36.9,3,69.1,7.4,71.9L26.6,145.7z"/>
		<path id="path14642" class="st20" d="M28.4,111.2c-3.1-1.6-5.4-15.6-5.2-31.5c0.2-16,2.9-28,6-27.2l-1.6-0.6
			c-3.1-0.8-5.8,11.3-6,27.2s2.1,29.9,5.2,31.5L28.4,111.2z"/>
		<path id="path14652" class="st20" d="M30.7,148.3c4.4,2.8,8.3-24.9,8.7-61.8s-3-69.1-7.4-71.9l0.2,0.1c4.4,2.8,7.8,35,7.4,71.9
			c-0.3,36.9-4.2,64.6-8.7,61.8L30.7,148.3z"/>
	</g>
	<g id="Output_Wires">
		<g>
			<linearGradient id="path100_3_" gradientUnits="userSpaceOnUse" x1="2.4964" y1="133.3497" x2="29.6654" y2="133.3497">
				<stop  offset="9.767359e-02" style="stop-color:#247BFF"/>
				<stop  offset="0.3998" style="stop-color:#FCFCFC"/>
				<stop  offset="0.6528" style="stop-color:#1572FF"/>
			</linearGradient>
			<path id="path100" class="st21" d="M27.7,103.7L4.5,163"/>
			<ellipse id="path7429_14_" class="st1" cx="4.5" cy="163.4" rx="1" ry="1"/>
		</g>
		<g>
			<linearGradient id="path98_1_" gradientUnits="userSpaceOnUse" x1="2.4964" y1="125.1565" x2="29.0146" y2="125.1565">
				<stop  offset="0.1734" style="stop-color:#00E922"/>
				<stop  offset="0.5829" style="stop-color:#E3FF6E"/>
				<stop  offset="0.9854" style="stop-color:#3BEF36"/>
			</linearGradient>
			<path id="path98" class="st22" d="M27,101.8L4.5,148.6"/>
			<ellipse id="path7429_15_" class="st1" cx="4.3" cy="148.8" rx="1" ry="1"/>
		</g>
		<g>
			<linearGradient id="path96_1_" gradientUnits="userSpaceOnUse" x1="2.5509" y1="117.7027" x2="28.2718" y2="117.7027">
				<stop  offset="6.030163e-02" style="stop-color:#261D1B"/>
				<stop  offset="0.5231" style="stop-color:#F41111"/>
				<stop  offset="0.996" style="stop-color:#000000"/>
			</linearGradient>
			<path id="path96" class="st23" d="M26.3,101.3L4.6,134.1"/>
			<ellipse id="path7429_16_" class="st1" cx="4.3" cy="134.4" rx="1" ry="1"/>
		</g>
		<g>
			<path id="path7458" class="st4" d="M26.2,100.8L4.5,119.6"/>
			<ellipse id="path7429_17_" class="st1" cx="4.3" cy="119.8" rx="1" ry="1"/>
		</g>
		<g>
			<path id="path7456" class="st5" d="M25.4,101.3l-20.3,10"/>
			<ellipse id="path7429_18_" class="st1" cx="4.8" cy="111.5" rx="1" ry="1"/>
		</g>
		<g>
			<path id="path7454" class="st6" d="M27.1,102.1L3.7,99.8"/>
			<ellipse id="path7429_19_" class="st1" cx="3.5" cy="99.8" rx="1" ry="1"/>
		</g>
		<g>
			<path id="path7456_1_" class="st7" d="M27,100.6L3.8,93.7"/>
			<ellipse id="path7429_20_" class="st1" cx="3.5" cy="93.6" rx="1" ry="1"/>
		</g>
		<g>
			<path id="path7456_2_" class="st8" d="M26.3,57.8L4,78.7"/>
			<ellipse id="path7429_21_" class="st1" cx="3.7" cy="78.9" rx="1" ry="1"/>
		</g>
		<g>
			<path id="path7452" class="st9" d="M28.8,57.5L2,70.5"/>
			<ellipse id="path7429_22_" class="st1" cx="1.7" cy="70.7" rx="1" ry="1"/>
		</g>
		<g>
			<path id="path7450" class="st10" d="M26.2,55.9L4.5,61.7"/>
			<ellipse id="path7429_23_" class="st1" cx="4.2" cy="61.9" rx="1" ry="1"/>
		</g>
		<g>
			<linearGradient id="path7_2_" gradientUnits="userSpaceOnUse" x1="2.4964" y1="51.5073" x2="28.3176" y2="51.5073">
				<stop  offset="0.1693" style="stop-color:#F41111"/>
				<stop  offset="0.6271" style="stop-color:#FFFFFF"/>
				<stop  offset="0.8889" style="stop-color:#F41111"/>
			</linearGradient>
			<path id="path7_1_" class="st24" d="M26.3,55.8L4.5,47.2"/>
			<ellipse id="path7429_24_" class="st1" cx="4.1" cy="47" rx="1" ry="1"/>
		</g>
		<g>
			<path id="path90" class="st12" d="M26.2,54.4L4.5,32.7"/>
			<ellipse id="path7429_25_" class="st1" cx="4.2" cy="32.5" rx="1" ry="1"/>
		</g>
		<g>
			<path id="path92" class="st13" d="M26.2,54.4L4.5,18.2"/>
			<ellipse id="path7429_26_" class="st1" cx="4.2" cy="18" rx="1" ry="1"/>
		</g>
		<g>
			<path id="path94" class="st14" d="M26.3,55.8L4.5,3.7"/>
			<ellipse id="path7429_27_" class="st1" cx="4.2" cy="3.5" rx="1" ry="1"/>
		</g>
	</g>
</g>
<g id="Connectors">
	<g transform="scale(1,-1)">
		<g>
			<g>
				<g>
					<circle id="connector9pin" class="st25" cx="105.8" cy="-4" r="0.9"/>
				</g>
			</g>
		</g>
	</g>
	<g transform="scale(1,-1)">
		<g>
			<g>
				<g>
					<circle id="connector9pin_1_" class="st25" cx="107.5" cy="-19.6" r="0.9"/>
				</g>
			</g>
		</g>
	</g>
	<g transform="scale(1,-1)">
		<g>
			<g>
				<g>
					<circle id="connector9pin_2_" class="st25" cx="107.4" cy="-33.5" r="0.9"/>
				</g>
			</g>
		</g>
	</g>
	<g transform="scale(1,-1)">
		<g>
			<g>
				<g>
					<circle id="connector9pin_3_" class="st25" cx="105.9" cy="-47.2" r="0.9"/>
				</g>
			</g>
		</g>
	</g>
	<g transform="scale(1,-1)">
		<g>
			<g>
				<g>
					<circle id="connector9pin_4_" class="st25" cx="107" cy="-55.3" r="0.9"/>
				</g>
			</g>
		</g>
	</g>
	<g transform="scale(1,-1)">
		<g>
			<g>
				<g>
					<circle id="connector9pin_5_" class="st25" cx="105.6" cy="-63.1" r="0.9"/>
				</g>
			</g>
		</g>
	</g>
	<g transform="scale(1,-1)">
		<g>
			<g>
				<g>
					<circle id="connector9pin_6_" class="st25" cx="105.6" cy="-70.3" r="0.9"/>
				</g>
			</g>
		</g>
	</g>
	<g transform="scale(1,-1)">
		<g>
			<g>
				<g>
					<circle id="connector9pin_7_" class="st25" cx="106.2" cy="-76" r="0.9"/>
				</g>
			</g>
		</g>
	</g>
	<g transform="scale(1,-1)">
		<g>
			<g>
				<g>
					<circle id="connector9pin_8_" class="st25" cx="106.2" cy="-90.8" r="0.9"/>
				</g>
			</g>
		</g>
	</g>
	<g transform="scale(1,-1)">
		<g>
			<g>
				<g>
					<circle id="connector9pin_9_" class="st25" cx="106" cy="-105.3" r="0.9"/>
				</g>
			</g>
		</g>
	</g>
	<g transform="scale(1,-1)">
		<g>
			<g>
				<g>
					<circle id="connector9pin_10_" class="st25" cx="105.9" cy="-119.6" r="0.9"/>
				</g>
			</g>
		</g>
	</g>
	<g transform="scale(1,-1)">
		<g>
			<g>
				<g>
					<circle id="connector9pin_11_" class="st25" cx="107.7" cy="-133.5" r="0.9"/>
				</g>
			</g>
		</g>
	</g>
	<g transform="scale(1,-1)">
		<g>
			<g>
				<g>
					<circle id="connector9pin_12_" class="st25" cx="107" cy="-148.4" r="0.9"/>
				</g>
			</g>
		</g>
	</g>
	<g transform="scale(1,-1)">
		<g>
			<g>
				<g>
					<circle id="connector9pin_13_" class="st25" cx="104.7" cy="-162.9" r="0.9"/>
				</g>
			</g>
		</g>
	</g>
	<g transform="scale(1,-1)">
		<g>
			<g>
				<g>
					<circle id="connector9pin_14_" class="st25" cx="4.4" cy="-3.7" r="0.9"/>
				</g>
			</g>
		</g>
	</g>
	<g transform="scale(1,-1)">
		<g>
			<g>
				<g>
					<circle id="connector9pin_15_" class="st25" cx="4.4" cy="-18" r="0.9"/>
				</g>
			</g>
		</g>
	</g>
	<g transform="scale(1,-1)">
		<g>
			<g>
				<g>
					<circle id="connector9pin_16_" class="st25" cx="4.5" cy="-32.7" r="0.9"/>
				</g>
			</g>
		</g>
	</g>
	<g transform="scale(1,-1)">
		<g>
			<g>
				<g>
					<circle id="connector9pin_17_" class="st25" cx="4.2" cy="-47" r="0.9"/>
				</g>
			</g>
		</g>
	</g>
	<g transform="scale(1,-1)">
		<g>
			<g>
				<g>
					<circle id="connector9pin_18_" class="st25" cx="4.2" cy="-61.7" r="0.9"/>
				</g>
			</g>
		</g>
	</g>
	<g transform="scale(1,-1)">
		<g>
			<g>
				<g>
					<circle id="connector9pin_19_" class="st25" cx="2" cy="-70.6" r="0.9"/>
				</g>
			</g>
		</g>
	</g>
	<g transform="scale(1,-1)">
		<g>
			<g>
				<g>
					<circle id="connector9pin_20_" class="st25" cx="4" cy="-78.8" r="0.9"/>
				</g>
			</g>
		</g>
	</g>
	<g transform="scale(1,-1)">
		<g>
			<g>
				<g>
					<circle id="connector9pin_21_" class="st25" cx="3.7" cy="-93.7" r="0.9"/>
				</g>
			</g>
		</g>
	</g>
	<g transform="scale(1,-1)">
		<g>
			<g>
				<g>
					<circle id="connector9pin_22_" class="st25" cx="3.7" cy="-99.8" r="0.9"/>
				</g>
			</g>
		</g>
	</g>
	<g transform="scale(1,-1)">
		<g>
			<g>
				<g>
					<circle id="connector9pin_23_" class="st25" cx="5.2" cy="-111.2" r="0.9"/>
				</g>
			</g>
		</g>
	</g>
	<g transform="scale(1,-1)">
		<g>
			<g>
				<g>
					<circle id="connector9pin_24_" class="st25" cx="4.4" cy="-119.7" r="0.9"/>
				</g>
			</g>
		</g>
	</g>
	<g transform="scale(1,-1)">
		<g>
			<g>
				<g>
					<circle id="connector9pin_25_" class="st25" cx="4.6" cy="-134.1" r="0.9"/>
				</g>
			</g>
		</g>
	</g>
	<g transform="scale(1,-1)">
		<g>
			<g>
				<g>
					<circle id="connector9pin_26_" class="st25" cx="4.5" cy="-148.6" r="0.9"/>
				</g>
			</g>
		</g>
	</g>
	<g transform="scale(1,-1)">
		<g>
			<g>
				<g>
					<circle id="connector9pin_27_" class="st25" cx="4.3" cy="-163.4" r="0.9"/>
				</g>
			</g>
		</g>
	</g>
</g>
</svg>
