<?xml version="1.0" encoding="utf-8"?>
<!-- Generator: Adobe Illustrator 23.1.0, SVG Export Plug-In . SVG Version: 6.00 Build 0)  -->
<svg version="1.1" id="Layer_1" xmlns:svg="http://www.w3.org/2000/svg"
	 xmlns="http://www.w3.org/2000/svg" xmlns:xlink="http://www.w3.org/1999/xlink" width="85.7" height="45.4" viewBox="0 0 85.7 45.4"
	 style="enable-background:new 0 0 85.7 45.4;" xml:space="preserve">
<style type="text/css">
	.st0{fill:#1F7A34;}
	.st1{fill:#FFFFFF;}
	.st2{font-family:'OCRA';}
	.st3{font-size:4.68px;}
	.st4{font-size:3.24px;}
	.st5{fill:#8D8C8C;}
	.st6{fill:#8C8663;}
	.st7{fill:#B8AF82;}
	.st8{fill:#80795B;}
	.st9{fill:#5E5B43;}
	.st10{fill:#9A916C;}
	.st11{fill:#DCDCDC;}
	.st12{fill:#F0F0F0;}
	.st13{fill:#BEBEBE;}
	.st14{fill:#8C8C8C;}
</style>
<g>
	<g id="breadboard">
		<g id="icon">
			<path class="st0" d="M0,2.2v19.4c1,0,1.8,1,1.8,2.2S1,26,0,26v19.4h85.7V2.2H0z"/>
			<text id="label" transform="matrix(1 0 0 1 3.6 29.5547)" class="st1 st2 st3">USB 3.1 C Type Module</text>
			<g transform="matrix(1, 0, 0, 1, 4.572, 37.8756)">
				<g>
					<g transform="rotate(-90)">
						<g>
							<text transform="matrix(1 0 0 1 -2.1993 0)" class="st1 st2 st4">A12</text>
						</g>
					</g>
				</g>
			</g>
			<g transform="matrix(1, 0, 0, 1, 11.772, 37.8756)">
				<g>
					<g transform="rotate(-90)">
						<g>
							<text transform="matrix(1 0 0 1 -2.1993 0)" class="st1 st2 st4">A11</text>
						</g>
					</g>
				</g>
			</g>
			<g transform="matrix(1, 0, 0, 1, 18.972, 37.8756)">
				<g>
					<g transform="rotate(-90)">
						<g>
							<text transform="matrix(1 0 0 1 -2.1993 0)" class="st1 st2 st4">A10</text>
						</g>
					</g>
				</g>
			</g>
			<g transform="matrix(1, 0, 0, 1, 26.172, 37.8756)">
				<g>
					<g transform="rotate(-90)">
						<g>
							<text transform="matrix(1 0 0 1 -2.1993 0)" class="st1 st2 st4">A9</text>
						</g>
					</g>
				</g>
			</g>
			<g transform="matrix(1, 0, 0, 1, 33.372, 37.8756)">
				<g>
					<g transform="rotate(-90)">
						<g>
							<text transform="matrix(1 0 0 1 -2.1993 0)" class="st1 st2 st4">A8</text>
						</g>
					</g>
				</g>
			</g>
			<g transform="matrix(1, 0, 0, 1, 40.572, 37.8756)">
				<g>
					<g transform="rotate(-90)">
						<g>
							<text transform="matrix(1 0 0 1 -2.1993 0)" class="st1 st2 st4">A7</text>
						</g>
					</g>
				</g>
			</g>
			<g transform="matrix(1, 0, 0, 1, 47.772, 37.8756)">
				<g>
					<g transform="rotate(-90)">
						<g>
							<text transform="matrix(1 0 0 1 -2.1993 0)" class="st1 st2 st4">A6</text>
						</g>
					</g>
				</g>
			</g>
			<g transform="matrix(1, 0, 0, 1, 54.972, 37.8756)">
				<g>
					<g transform="rotate(-90)">
						<g>
							<text transform="matrix(1 0 0 1 -2.1993 0)" class="st1 st2 st4">A5</text>
						</g>
					</g>
				</g>
			</g>
			<g transform="matrix(1, 0, 0, 1, 62.172, 37.8756)">
				<g>
					<g transform="rotate(-90)">
						<g>
							<text transform="matrix(1 0 0 1 -2.1993 0)" class="st1 st2 st4">A4</text>
						</g>
					</g>
				</g>
			</g>
			<g transform="matrix(1, 0, 0, 1, 69.372, 37.8756)">
				<g>
					<g transform="rotate(-90)">
						<g>
							<text transform="matrix(1 0 0 1 -2.1993 0)" class="st1 st2 st4">A3</text>
						</g>
					</g>
				</g>
			</g>
			<g transform="matrix(1, 0, 0, 1, 76.572, 37.8756)">
				<g>
					<g transform="rotate(-90)">
						<g>
							<text transform="matrix(1 0 0 1 -2.1993 0)" class="st1 st2 st4">A2</text>
						</g>
					</g>
				</g>
			</g>
			<g transform="matrix(1, 0, 0, 1, 83.772, 37.8756)">
				<g>
					<g transform="rotate(-90)">
						<g>
							<text transform="matrix(1 0 0 1 -2.1993 0)" class="st1 st2 st4">A1</text>
						</g>
					</g>
				</g>
			</g>
		</g>
		<g transform="matrix(1, 0, 0, 1, 2.45052, 38.4516)">
			<g id="connector0pin">
				<rect x="0" y="2.2" class="st5" width="2.3" height="2.3"/>
				<rect x="0.6" y="2.8" class="st6" width="1.2" height="1.2"/>
				<polygon class="st7" points="0,4.5 0.6,3.9 0.6,2.7 0,2.2 				"/>
				<polygon class="st8" points="1.7,2.8 0.6,2.8 0,2.2 2.3,2.2 				"/>
				<polygon class="st9" points="1.7,3.9 1.7,2.8 2.3,2.2 2.3,4.5 				"/>
				<polygon class="st10" points="0,4.5 0.6,3.9 1.7,3.9 2.3,4.5 				"/>
			</g>
		</g>
		<g transform="matrix(1, 0, 0, 1, 9.65052, 38.4516)">
			<g id="connector1pin">
				<rect x="0" y="2.2" class="st5" width="2.3" height="2.3"/>
				<rect x="0.6" y="2.8" class="st6" width="1.2" height="1.2"/>
				<polygon class="st7" points="0,4.5 0.6,3.9 0.6,2.7 0,2.2 				"/>
				<polygon class="st8" points="1.7,2.8 0.6,2.8 0,2.2 2.3,2.2 				"/>
				<polygon class="st9" points="1.7,3.9 1.7,2.8 2.3,2.2 2.3,4.5 				"/>
				<polygon class="st10" points="0,4.5 0.6,3.9 1.7,3.9 2.3,4.5 				"/>
			</g>
		</g>
		<g transform="matrix(1, 0, 0, 1, 16.8505, 38.4516)">
			<g id="connector2pin">
				<rect x="0" y="2.2" class="st5" width="2.3" height="2.3"/>
				<rect x="0.6" y="2.8" class="st6" width="1.2" height="1.2"/>
				<polygon class="st7" points="0,4.5 0.6,3.9 0.6,2.7 0,2.2 				"/>
				<polygon class="st8" points="1.7,2.8 0.6,2.8 0,2.2 2.3,2.2 				"/>
				<polygon class="st9" points="1.7,3.9 1.7,2.8 2.3,2.2 2.3,4.5 				"/>
				<polygon class="st10" points="0,4.5 0.6,3.9 1.7,3.9 2.3,4.5 				"/>
			</g>
		</g>
		<g transform="matrix(1, 0, 0, 1, 24.0505, 38.4516)">
			<g id="connector3pin">
				<rect x="0" y="2.2" class="st5" width="2.3" height="2.3"/>
				<rect x="0.6" y="2.8" class="st6" width="1.2" height="1.2"/>
				<polygon class="st7" points="0,4.5 0.6,3.9 0.6,2.7 0,2.2 				"/>
				<polygon class="st8" points="1.7,2.8 0.6,2.8 0,2.2 2.3,2.2 				"/>
				<polygon class="st9" points="1.7,3.9 1.7,2.8 2.3,2.2 2.3,4.5 				"/>
				<polygon class="st10" points="0,4.5 0.6,3.9 1.7,3.9 2.3,4.5 				"/>
			</g>
		</g>
		<g transform="matrix(1, 0, 0, 1, 31.2505, 38.4516)">
			<g id="connector4pin">
				<rect x="0" y="2.2" class="st5" width="2.3" height="2.3"/>
				<rect x="0.6" y="2.8" class="st6" width="1.2" height="1.2"/>
				<polygon class="st7" points="0,4.5 0.6,3.9 0.6,2.7 0,2.2 				"/>
				<polygon class="st8" points="1.7,2.8 0.6,2.8 0,2.2 2.3,2.2 				"/>
				<polygon class="st9" points="1.7,3.9 1.7,2.8 2.3,2.2 2.3,4.5 				"/>
				<polygon class="st10" points="0,4.5 0.6,3.9 1.7,3.9 2.3,4.5 				"/>
			</g>
		</g>
		<g transform="matrix(1, 0, 0, 1, 38.4505, 38.4516)">
			<g id="connector5pin">
				<rect x="0" y="2.2" class="st5" width="2.3" height="2.3"/>
				<rect x="0.6" y="2.8" class="st6" width="1.2" height="1.2"/>
				<polygon class="st7" points="0,4.5 0.6,3.9 0.6,2.7 0,2.2 				"/>
				<polygon class="st8" points="1.7,2.8 0.6,2.8 0,2.2 2.3,2.2 				"/>
				<polygon class="st9" points="1.7,3.9 1.7,2.8 2.3,2.2 2.3,4.5 				"/>
				<polygon class="st10" points="0,4.5 0.6,3.9 1.7,3.9 2.3,4.5 				"/>
			</g>
		</g>
		<g transform="matrix(1, 0, 0, 1, 45.6505, 38.4516)">
			<g id="connector6pin">
				<rect x="0" y="2.2" class="st5" width="2.3" height="2.3"/>
				<rect x="0.6" y="2.8" class="st6" width="1.2" height="1.2"/>
				<polygon class="st7" points="0,4.5 0.6,3.9 0.6,2.7 0,2.2 				"/>
				<polygon class="st8" points="1.7,2.8 0.6,2.8 0,2.2 2.3,2.2 				"/>
				<polygon class="st9" points="1.7,3.9 1.7,2.8 2.3,2.2 2.3,4.5 				"/>
				<polygon class="st10" points="0,4.5 0.6,3.9 1.7,3.9 2.3,4.5 				"/>
			</g>
		</g>
		<g transform="matrix(1, 0, 0, 1, 52.8505, 38.4516)">
			<g id="connector7pin">
				<rect x="0" y="2.2" class="st5" width="2.3" height="2.3"/>
				<rect x="0.6" y="2.8" class="st6" width="1.2" height="1.2"/>
				<polygon class="st7" points="0,4.5 0.6,3.9 0.6,2.7 0,2.2 				"/>
				<polygon class="st8" points="1.7,2.8 0.6,2.8 0,2.2 2.3,2.2 				"/>
				<polygon class="st9" points="1.7,3.9 1.7,2.8 2.3,2.2 2.3,4.5 				"/>
				<polygon class="st10" points="0,4.5 0.6,3.9 1.7,3.9 2.3,4.5 				"/>
			</g>
		</g>
		<g transform="matrix(1, 0, 0, 1, 60.0505, 38.4516)">
			<g id="connector8pin">
				<rect x="0" y="2.2" class="st5" width="2.3" height="2.3"/>
				<rect x="0.6" y="2.8" class="st6" width="1.2" height="1.2"/>
				<polygon class="st7" points="0,4.5 0.6,3.9 0.6,2.7 0,2.2 				"/>
				<polygon class="st8" points="1.7,2.8 0.6,2.8 0,2.2 2.3,2.2 				"/>
				<polygon class="st9" points="1.7,3.9 1.7,2.8 2.3,2.2 2.3,4.5 				"/>
				<polygon class="st10" points="0,4.5 0.6,3.9 1.7,3.9 2.3,4.5 				"/>
			</g>
		</g>
		<g transform="matrix(1, 0, 0, 1, 67.2505, 38.4516)">
			<g id="connector9pin">
				<rect x="0" y="2.2" class="st5" width="2.3" height="2.3"/>
				<rect x="0.6" y="2.8" class="st6" width="1.2" height="1.2"/>
				<polygon class="st7" points="0,4.5 0.6,3.9 0.6,2.7 0,2.2 				"/>
				<polygon class="st8" points="1.7,2.8 0.6,2.8 0,2.2 2.3,2.2 				"/>
				<polygon class="st9" points="1.7,3.9 1.7,2.8 2.3,2.2 2.3,4.5 				"/>
				<polygon class="st10" points="0,4.5 0.6,3.9 1.7,3.9 2.3,4.5 				"/>
			</g>
		</g>
		<g transform="matrix(1, 0, 0, 1, 74.4509, 38.4516)">
			<g id="connector10pin">
				<rect x="0" y="2.2" class="st5" width="2.3" height="2.3"/>
				<rect x="0.6" y="2.8" class="st6" width="1.2" height="1.2"/>
				<polygon class="st7" points="0,4.5 0.6,3.9 0.6,2.7 0,2.2 				"/>
				<polygon class="st8" points="1.7,2.8 0.6,2.8 0,2.2 2.3,2.2 				"/>
				<polygon class="st9" points="1.7,3.9 1.7,2.8 2.3,2.2 2.3,4.5 				"/>
				<polygon class="st10" points="0,4.5 0.6,3.9 1.7,3.9 2.3,4.5 				"/>
			</g>
		</g>
		<g transform="matrix(1, 0, 0, 1, 81.6509, 38.4516)">
			<g id="connector11pin">
				<rect x="0" y="2.2" class="st5" width="2.3" height="2.3"/>
				<rect x="0.6" y="2.8" class="st6" width="1.2" height="1.2"/>
				<polygon class="st7" points="0,4.5 0.6,3.9 0.6,2.7 0,2.2 				"/>
				<polygon class="st8" points="1.7,2.8 0.6,2.8 0,2.2 2.3,2.2 				"/>
				<polygon class="st9" points="1.7,3.9 1.7,2.8 2.3,2.2 2.3,4.5 				"/>
				<polygon class="st10" points="0,4.5 0.6,3.9 1.7,3.9 2.3,4.5 				"/>
			</g>
		</g>
	</g>
</g>
<g>
	<g transform="matrix(-1 -8.979496e-11 8.979496e-11 -1 57.6 20.8346)">
		<rect x="1.5" y="0" class="st11" width="23.2" height="20.8"/>
	</g>
	<path class="st11" d="M52.9,20.3h0.5v1.3h-0.5V20.3z M52.1,21.6h0.5v-1.3h-0.5V21.6z M50.9,21.6h0.5v-1.3h-0.5V21.6z M50,21.6h0.5
		v-1.3H50V21.6z M48.8,21.6h0.5v-1.3h-0.5V21.6z M47.5,21.6H48v-1.3h-0.5V21.6z M46.2,21.6h0.5v-1.3h-0.5V21.6z M44.8,21.6h0.5v-1.3
		h-0.5V21.6z M43.5,21.6h0.5v-1.3h-0.5V21.6z M42.3,21.6h0.5v-1.3h-0.5V21.6z M41,21.6h0.5v-1.3H41V21.6z M39.7,21.6h0.5v-1.3h-0.5
		V21.6z M38.4,21.6H39v-1.3h-0.5V21.6z M37.6,21.6h0.5v-1.3h-0.5V21.6z M36.3,21.6h0.5v-1.3h-0.5V21.6z M35.5,21.6H36v-1.3h-0.5
		V21.6z"/>
	<g transform="matrix(-1 -8.973501e-11 8.973501e-11 -1 77.5562 20.8346)">
		<rect x="23.3" y="0" class="st12" width="1.2" height="20.8"/>
	</g>
	<g transform="matrix(-1 -8.973501e-11 8.973501e-11 -1 37.6438 20.8346)">
		<rect x="1.8" y="0" class="st13" width="1.2" height="20.8"/>
	</g>
	<path class="st14" d="M32.8,20.8v-2h0.3c0.3,0,0.5,0.3,0.5,0.6V20c0,0.3,0.3,0.6,0.5,0.6h2.6c0.3,0,0.5-0.3,0.5-0.6v-2
		c0-0.3,0.3-0.6,0.5-0.6H41c0.3,0,0.5,0.3,0.5,0.6l0,0c0,0.3-0.3,0.6-0.5,0.6h-1.4c-0.3,0-0.5,0.3-0.5,0.6V20c0,0.3,0.3,0.6,0.5,0.6
		h9.5c0.3,0,0.5-0.3,0.5-0.6v-0.7c0-0.3-0.3-0.6-0.5-0.6h-1.4c-0.3,0-0.5-0.3-0.5-0.6l0,0c0-0.3,0.3-0.6,0.5-0.6H51
		c0.3,0,0.5,0.3,0.5,0.6v2c0,0.3,0.3,0.6,0.5,0.6h2.6c0.3,0,0.5-0.3,0.5-0.6v-0.5c0-0.3,0.3-0.6,0.5-0.6H56v2L32.8,20.8L32.8,20.8z"
		/>
	<g transform="matrix(-1 -8.929359e-11 8.929359e-11 -1 67.6979 28.6106)">
		<rect x="17" y="13.6" class="st14" width="3.2" height="1.4"/>
	</g>
	<rect x="38.2" y="13.6" class="st14" width="3.2" height="1.4"/>
</g>
</svg>
