<?xml version="1.0" encoding="utf-8"?>
<!-- Generator: Adobe Illustrator 21.0.0, SVG Export Plug-In . SVG Version: 6.00 Build 0)  -->
<svg version="1.1" id="Layer_1" xmlns="http://www.w3.org/2000/svg" xmlns:xlink="http://www.w3.org/1999/xlink" x="0px" y="0px"
	 viewBox="0 0 1878.3 357.4" enable-background="new 0 0 1878.3 357.4" xml:space="preserve">
<g>
	
		<ellipse transform="matrix(0.1689 -0.9856 0.9856 0.1689 149.3941 537.1744)" fill="#231F20" cx="393.2" cy="180" rx="72.8" ry="72.8"/>
	
		<linearGradient id="SVGID_1_" gradientUnits="userSpaceOnUse" x1="369.312" y1="-730.1445" x2="224.4173" y2="-587.0354" gradientTransform="matrix(0.9856 0.1689 0.1689 -0.9856 296.5873 -545.8726)">
		<stop  offset="0.1414" style="stop-color:#43B8A0"/>
		<stop  offset="0.1957" style="stop-color:#76A585"/>
		<stop  offset="0.2766" style="stop-color:#9B8864"/>
		<stop  offset="0.3508" style="stop-color:#B1704B"/>
		<stop  offset="0.4159" style="stop-color:#BE5B3B"/>
		<stop  offset="0.4692" style="stop-color:#C64B32"/>
		<stop  offset="0.5042" style="stop-color:#C8452F"/>
		<stop  offset="0.5346" style="stop-color:#C54E33"/>
		<stop  offset="0.5871" style="stop-color:#BB623F"/>
		<stop  offset="0.6553" style="stop-color:#A87B55"/>
		<stop  offset="0.7366" style="stop-color:#879977"/>
		<stop  offset="0.8184" style="stop-color:#43B8A0"/>
		<stop  offset="1" style="stop-color:#43B8A0"/>
	</linearGradient>
	<path fill="url(#SVGID_1_)" d="M429.9,50.5l-5.4,31.6c48,15.2,78.5,63.9,69.8,114.8c-2.6,15.4-8.6,29.5-17.1,41.5l25.1,19.5
		c11.5-16,19.7-34.9,23.3-55.6C537.3,134,495.1,68.8,429.9,50.5z"/>
	<g>
		
			<linearGradient id="SVGID_2_" gradientUnits="userSpaceOnUse" x1="335.0386" y1="-67.5341" x2="350.7671" y2="-209.5359" gradientTransform="matrix(1 0 0 -1 0 89.9825)">
			<stop  offset="0.1414" style="stop-color:#43B8A0"/>
			<stop  offset="0.1957" style="stop-color:#76A585"/>
			<stop  offset="0.2766" style="stop-color:#9B8864"/>
			<stop  offset="0.3508" style="stop-color:#B1704B"/>
			<stop  offset="0.4159" style="stop-color:#BE5B3B"/>
			<stop  offset="0.4692" style="stop-color:#C64B32"/>
			<stop  offset="0.5042" style="stop-color:#C8452F"/>
			<stop  offset="0.5346" style="stop-color:#C54E33"/>
			<stop  offset="0.5871" style="stop-color:#BB623F"/>
			<stop  offset="0.6553" style="stop-color:#A87B55"/>
			<stop  offset="0.7366" style="stop-color:#879977"/>
			<stop  offset="0.8184" style="stop-color:#43B8A0"/>
			<stop  offset="1" style="stop-color:#43B8A0"/>
		</linearGradient>
		<path fill="url(#SVGID_2_)" d="M294.4,206.3c-3.8-13.9-4.6-28.9-2-44c8.8-51.1,53.9-86.7,104.2-85.1l5.3-31.6
			C334.2,41.3,272.7,88.6,261,157c-3.6,20.8-2.1,41.4,3.5,60.4L294.4,206.3z"/>
		
			<linearGradient id="SVGID_3_" gradientUnits="userSpaceOnUse" x1="56.4805" y1="-766.9075" x2="264.7386" y2="-802.0145" gradientTransform="matrix(0.9856 0.1689 0.1689 -0.9856 296.5873 -545.8726)">
			<stop  offset="0.1414" style="stop-color:#43B8A0"/>
			<stop  offset="0.1957" style="stop-color:#76A585"/>
			<stop  offset="0.2766" style="stop-color:#9B8864"/>
			<stop  offset="0.3508" style="stop-color:#B1704B"/>
			<stop  offset="0.4159" style="stop-color:#BE5B3B"/>
			<stop  offset="0.4692" style="stop-color:#C64B32"/>
			<stop  offset="0.5042" style="stop-color:#C8452F"/>
			<stop  offset="0.5346" style="stop-color:#C54E33"/>
			<stop  offset="0.5871" style="stop-color:#BB623F"/>
			<stop  offset="0.6553" style="stop-color:#A87B55"/>
			<stop  offset="0.7366" style="stop-color:#879977"/>
			<stop  offset="0.8184" style="stop-color:#43B8A0"/>
			<stop  offset="1" style="stop-color:#43B8A0"/>
		</linearGradient>
		<path fill="url(#SVGID_3_)" d="M457.8,259.2c-22.1,17.9-51.5,26.6-81.8,21.4c-30.5-5.2-55.6-23.5-70.5-48.2l-30.3,11.1
			c18.9,34.9,53.1,61.1,95.3,68.4c42.3,7.2,83.3-6.1,112.8-32.8L457.8,259.2z"/>
	</g>
</g>
<path d="M0,268.3l22.7-21.7c21.4,18.5,51.2,30.7,82.1,30.7c39,0,62.2-16.2,62.2-40.3c0-25.3-21.6-33.4-49.7-43.6l-42.8-15.7
	c-27.6-9.8-60.2-27.3-60.2-63.8C14.3,75.9,53.9,48,108,48c35.3,0,66.7,12.7,87.7,30.7L175.6,99c-18.2-14.4-40.1-23.3-67.6-23.3
	c-33.4,0-55.5,14.1-55.5,36.2c0,23.9,26,32.8,49.3,41l42.4,15.3c34.5,12.3,61.3,29.4,61.3,66.3c0,39.2-38.8,70.5-101.5,70.5
	C62.4,305.1,26,290.9,0,268.3z M1612.6,268.3l22.7-21.7c21.4,18.5,51.2,30.7,82.1,30.7c39,0,62.2-16.2,62.2-40.3
	c0-25.3-21.6-33.4-49.7-43.6l-42.8-15.7c-27.7-9.9-60.3-27.4-60.3-63.8c0-37.9,39.6-65.8,93.7-65.8c35.3,0,66.7,12.7,87.7,30.7
	L1788.2,99c-18.2-14.4-40.1-23.3-67.6-23.3c-33.4,0-55.5,14.1-55.5,36.2c0,23.9,26,32.8,49.3,41l42.4,15.3
	c34.5,12.3,61.3,29.4,61.3,66.3c0,39.2-38.8,70.5-101.5,70.5C1675,305.1,1638.7,290.9,1612.6,268.3z"/>
<path d="M605.6,55.2h39.8v230.3h136.5v27.8H605.6V55.2z M851.1,55.2h39.8v258.1h-39.8V55.2z M1005.6,55.2h41.1l113.2,162.3
	l33.8,53.5h1.9c-2-26-5-55.1-5-82.1V55.2h37.8v258.1h-41.2l-113.2-162.4l-33.8-53.3h-1.9c2,26.1,5,53.7,5,80.6v135.1h-37.8
	L1005.6,55.2L1005.6,55.2z M1407.4,55.2h44.9l105.8,258.1h-42.2l-29.7-78.7h-114l-30.1,78.7h-40.5L1407.4,55.2z M1476.3,208.5
	l-14.9-39.3c-11.3-28.9-21.3-57.2-31.3-87h-1.9c-9.7,29.9-19.7,58.1-31,87l-15,39.3H1476.3z"/>
</svg>
